<svg xmlns="http://www.w3.org/2000/svg" xmlns:svg="http://www.w3.org/2000/svg" id="svg8" width="234.982" height="249.32" version="1.1" viewBox="0 0 62.172 65.966"><metadata id="metadata5"/><g id="layer1" transform="translate(-93.505989,-152.56782)"><path id="path898" d="m 116.66234,214.40831 -9.25342,-0.0541 -3.45356,-3.20982 -9.449371,-33.15996 0.730322,-2.15198 1.602468,-1.62745 2.6608,0.0167 2.527651,1.57551 5.18565,13.70846 1.31545,0.34674 0.98137,-0.85598 8.24272,-33.30603 1.97839,-1.83598 2.3387,-0.2866 1.93778,1.42916 0.81272,2.65236 -5.21688,23.74828 0.57175,0.0481 9.479,-24.11708 2.5503,-2.50268 2.52969,-0.0857 1.75483,1.55847 0.29743,3.50941 -7.55244,23.3315 0.88664,0.56343 10.64898,-19.85809 2.51808,-1.56078 2.40013,0.3332 1.33106,1.73636 0.20056,2.9827 -10.2431,20.9457 0.77408,0.58208 10.55948,-13.00274 2.65477,-1.17461 2.32685,0.65587 1.19096,1.85859 0.19602,2.31829 -15.35506,19.95191 -8.8406,15.27621 -6.18805,2.78611 z" style="fill:#000;stroke-width:.26458332"/></g></svg>